<?xml version="1.0" encoding="UTF-8"?>
<!DOCTYPE svg PUBLIC "-//W3C//DTD SVG 1.1//EN" "http://www.w3.org/Graphics/SVG/1.1/DTD/svg11.dtd">
<svg version="1.2" width="59.27mm" height="55.74mm" viewBox="0 0 5927 5574" preserveAspectRatio="xMidYMid" fill-rule="evenodd" clip-path="url(#presentation_clip_path)" stroke-width="28.222" stroke-linejoin="round" xmlns="http://www.w3.org/2000/svg" xmlns:ooo="http://xml.openoffice.org/svg/export" xmlns:xlink="http://www.w3.org/1999/xlink" xml:space="preserve">
 <defs class="ClipPathGroup">
  <clipPath id="presentation_clip_path" clipPathUnits="userSpaceOnUse">
   <rect x="0" y="0" width="5927" height="5574"/>
  </clipPath>
 </defs>
 <defs class="TextShapeIndex">
  <g ooo:slide="id1" ooo:id-list="id3 id4 id5 id6 id7"/>
 </defs>
 <defs class="EmbeddedBulletChars">
  <g id="bullet-char-template(57356)" transform="scale(0.00048828125,-0.00048828125)">
   <path d="M 580,1141 L 1163,571 580,0 -4,571 580,1141 Z"/>
  </g>
  <g id="bullet-char-template(57354)" transform="scale(0.00048828125,-0.00048828125)">
   <path d="M 8,1128 L 1137,1128 1137,0 8,0 8,1128 Z"/>
  </g>
  <g id="bullet-char-template(10146)" transform="scale(0.00048828125,-0.00048828125)">
   <path d="M 174,0 L 602,739 174,1481 1456,739 174,0 Z M 1358,739 L 309,1346 659,739 1358,739 Z"/>
  </g>
  <g id="bullet-char-template(10132)" transform="scale(0.00048828125,-0.00048828125)">
   <path d="M 2015,739 L 1276,0 717,0 1260,543 174,543 174,936 1260,936 717,1481 1274,1481 2015,739 Z"/>
  </g>
  <g id="bullet-char-template(10007)" transform="scale(0.00048828125,-0.00048828125)">
   <path d="M 0,-2 C -7,14 -16,27 -25,37 L 356,567 C 262,823 215,952 215,954 215,979 228,992 255,992 264,992 276,990 289,987 310,991 331,999 354,1012 L 381,999 492,748 772,1049 836,1024 860,1049 C 881,1039 901,1025 922,1006 886,937 835,863 770,784 769,783 710,716 594,584 L 774,223 C 774,196 753,168 711,139 L 727,119 C 717,90 699,76 672,76 641,76 570,178 457,381 L 164,-76 C 142,-110 111,-127 72,-127 30,-127 9,-110 8,-76 1,-67 -2,-52 -2,-32 -2,-23 -1,-13 0,-2 Z"/>
  </g>
  <g id="bullet-char-template(10004)" transform="scale(0.00048828125,-0.00048828125)">
   <path d="M 285,-33 C 182,-33 111,30 74,156 52,228 41,333 41,471 41,549 55,616 82,672 116,743 169,778 240,778 293,778 328,747 346,684 L 369,508 C 377,444 397,411 428,410 L 1163,1116 C 1174,1127 1196,1133 1229,1133 1271,1133 1292,1118 1292,1087 L 1292,965 C 1292,929 1282,901 1262,881 L 442,47 C 390,-6 338,-33 285,-33 Z"/>
  </g>
  <g id="bullet-char-template(9679)" transform="scale(0.00048828125,-0.00048828125)">
   <path d="M 813,0 C 632,0 489,54 383,161 276,268 223,411 223,592 223,773 276,916 383,1023 489,1130 632,1184 813,1184 992,1184 1136,1130 1245,1023 1353,916 1407,772 1407,592 1407,412 1353,268 1245,161 1136,54 992,0 813,0 Z"/>
  </g>
  <g id="bullet-char-template(8226)" transform="scale(0.00048828125,-0.00048828125)">
   <path d="M 346,457 C 273,457 209,483 155,535 101,586 74,649 74,723 74,796 101,859 155,911 209,963 273,989 346,989 419,989 480,963 531,910 582,859 608,796 608,723 608,648 583,586 532,535 482,483 420,457 346,457 Z"/>
  </g>
  <g id="bullet-char-template(8211)" transform="scale(0.00048828125,-0.00048828125)">
   <path d="M -4,459 L 1135,459 1135,606 -4,606 -4,459 Z"/>
  </g>
 </defs>
 <defs class="TextEmbeddedBitmaps"/>
 <g>
  <g id="id2" class="Master_Slide">
   <g id="bg-id2" class="Background"/>
   <g id="bo-id2" class="BackgroundObjects"/>
  </g>
 </g>
 <g class="SlideGroup">
  <g>
   <g id="id1" class="Slide" clip-path="url(#presentation_clip_path)">
    <g class="Page">
     <g class="com.sun.star.drawing.ClosedBezierShape">
      <g id="id3">
       <path fill="rgb(203,133,38)" stroke="none" d="M 1751,4045 L 1570,3968 1574,3861 1577,3754 1534,3741 C 1510,3734 1356,3690 1190,3643 1025,3596 885,3554 881,3551 875,3547 875,3463 880,3296 885,3159 887,3044 884,3042 882,3039 805,3030 714,3020 623,3011 548,3002 547,3001 545,2999 824,2405 831,2395 833,2393 915,2471 1013,2568 1179,2733 1213,2761 1517,2991 1762,3176 1888,3265 2020,3345 2117,3404 2204,3457 2212,3464 2227,3474 2218,3498 2085,3799 2006,3977 1939,4123 1937,4123 1934,4122 1851,4087 1751,4045 Z"/>
      </g>
     </g>
     <g class="com.sun.star.drawing.ClosedBezierShape">
      <g id="id4">
       <path fill="rgb(203,133,38)" stroke="none" d="M 3032,5069 C 2978,5027 2933,4989 2933,4984 2933,4980 2987,4830 3054,4651 3173,4329 3175,4326 3197,4331 3209,4334 3307,4363 3413,4396 3520,4429 3608,4453 3609,4451 3611,4448 3695,4164 3797,3819 3937,3347 3986,3169 3997,3094 4005,3039 4009,2992 4007,2990 4004,2987 3883,2944 3738,2894 L 3475,2803 3469,2839 C 3466,2859 3463,2907 3462,2945 3462,3010 3446,3063 3157,3977 2989,4506 2849,4945 2845,4952 2840,4960 2796,4916 2693,4797 2216,4250 2104,4120 2104,4111 2104,4106 2274,3711 2481,3233 L 2858,2364 3091,2359 C 3220,2356 3357,2353 3396,2352 L 3468,2351 3540,2199 C 3579,2115 3617,2045 3624,2044 3631,2042 3725,2057 3834,2077 3942,2097 4035,2113 4040,2113 4045,2113 4079,2050 4115,1974 L 4180,1835 4302,1705 C 4407,1594 4445,1561 4571,1471 4652,1413 4727,1361 4738,1356 4748,1350 4836,1316 4933,1280 L 5110,1215 5309,1192 C 5418,1179 5521,1169 5537,1169 L 5567,1169 5572,1555 C 5574,1767 5576,1941 5575,1942 5574,1943 5518,1950 5450,1957 5344,1969 5315,1975 5239,2006 5133,2050 5136,2048 4992,2167 4887,2254 4867,2275 4796,2375 4752,2437 4712,2496 4707,2507 4667,2582 4502,3036 4406,3336 4294,3685 4285,3709 4097,4141 3991,4386 3881,4640 3853,4706 L 3801,4825 3797,4983 3793,5142 3462,5144 3131,5146 3032,5069 Z"/>
      </g>
     </g>
     <g class="com.sun.star.drawing.ClosedBezierShape">
      <g id="id5">
       <path fill="rgb(203,133,38)" stroke="none" d="M 5458,818 C 5351,756 5260,703 5257,700 5250,693 5437,317 5447,320 5458,323 5775,507 5785,516 5794,525 5676,931 5663,930 5658,930 5566,879 5458,818 Z"/>
      </g>
     </g>
     <g class="com.sun.star.drawing.TextShape">
      <g id="id6"/>
     </g>
     <g class="com.sun.star.drawing.TextShape">
      <g id="id7">
       <text class="TextShape"><tspan class="TextParagraph" font-family="Arial, sans-serif" font-size="423px" font-weight="400"><tspan class="TextPosition" x="588" y="1698"><tspan fill="rgb(0,0,0)" stroke="none">Robin Hood Airport</tspan></tspan></tspan><tspan class="TextParagraph" font-family="Arial, sans-serif" font-size="423px" font-weight="400"><tspan class="TextPosition" x="588" y="2176"><tspan fill="rgb(0,0,0)" stroke="none">Business Park</tspan></tspan></tspan></text>
      </g>
     </g>
    </g>
   </g>
  </g>
 </g>
</svg>