<?xml version="1.0" encoding="UTF-8"?>
<!DOCTYPE svg PUBLIC "-//W3C//DTD SVG 1.1//EN" "http://www.w3.org/Graphics/SVG/1.1/DTD/svg11.dtd">
<svg version="1.2" width="52.92mm" height="111.48mm" viewBox="0 0 5292 11148" preserveAspectRatio="xMidYMid" fill-rule="evenodd" clip-path="url(#presentation_clip_path)" stroke-width="28.222" stroke-linejoin="round" xmlns="http://www.w3.org/2000/svg" xmlns:ooo="http://xml.openoffice.org/svg/export" xmlns:xlink="http://www.w3.org/1999/xlink" xml:space="preserve">
 <defs class="ClipPathGroup">
  <clipPath id="presentation_clip_path" clipPathUnits="userSpaceOnUse">
   <rect x="0" y="0" width="5292" height="11148"/>
  </clipPath>
 </defs>
 <defs class="TextShapeIndex">
  <g ooo:slide="id1" ooo:id-list="id3 id4 id5"/>
 </defs>
 <defs class="EmbeddedBulletChars">
  <g id="bullet-char-template(57356)" transform="scale(0.00048828125,-0.00048828125)">
   <path d="M 580,1141 L 1163,571 580,0 -4,571 580,1141 Z"/>
  </g>
  <g id="bullet-char-template(57354)" transform="scale(0.00048828125,-0.00048828125)">
   <path d="M 8,1128 L 1137,1128 1137,0 8,0 8,1128 Z"/>
  </g>
  <g id="bullet-char-template(10146)" transform="scale(0.00048828125,-0.00048828125)">
   <path d="M 174,0 L 602,739 174,1481 1456,739 174,0 Z M 1358,739 L 309,1346 659,739 1358,739 Z"/>
  </g>
  <g id="bullet-char-template(10132)" transform="scale(0.00048828125,-0.00048828125)">
   <path d="M 2015,739 L 1276,0 717,0 1260,543 174,543 174,936 1260,936 717,1481 1274,1481 2015,739 Z"/>
  </g>
  <g id="bullet-char-template(10007)" transform="scale(0.00048828125,-0.00048828125)">
   <path d="M 0,-2 C -7,14 -16,27 -25,37 L 356,567 C 262,823 215,952 215,954 215,979 228,992 255,992 264,992 276,990 289,987 310,991 331,999 354,1012 L 381,999 492,748 772,1049 836,1024 860,1049 C 881,1039 901,1025 922,1006 886,937 835,863 770,784 769,783 710,716 594,584 L 774,223 C 774,196 753,168 711,139 L 727,119 C 717,90 699,76 672,76 641,76 570,178 457,381 L 164,-76 C 142,-110 111,-127 72,-127 30,-127 9,-110 8,-76 1,-67 -2,-52 -2,-32 -2,-23 -1,-13 0,-2 Z"/>
  </g>
  <g id="bullet-char-template(10004)" transform="scale(0.00048828125,-0.00048828125)">
   <path d="M 285,-33 C 182,-33 111,30 74,156 52,228 41,333 41,471 41,549 55,616 82,672 116,743 169,778 240,778 293,778 328,747 346,684 L 369,508 C 377,444 397,411 428,410 L 1163,1116 C 1174,1127 1196,1133 1229,1133 1271,1133 1292,1118 1292,1087 L 1292,965 C 1292,929 1282,901 1262,881 L 442,47 C 390,-6 338,-33 285,-33 Z"/>
  </g>
  <g id="bullet-char-template(9679)" transform="scale(0.00048828125,-0.00048828125)">
   <path d="M 813,0 C 632,0 489,54 383,161 276,268 223,411 223,592 223,773 276,916 383,1023 489,1130 632,1184 813,1184 992,1184 1136,1130 1245,1023 1353,916 1407,772 1407,592 1407,412 1353,268 1245,161 1136,54 992,0 813,0 Z"/>
  </g>
  <g id="bullet-char-template(8226)" transform="scale(0.00048828125,-0.00048828125)">
   <path d="M 346,457 C 273,457 209,483 155,535 101,586 74,649 74,723 74,796 101,859 155,911 209,963 273,989 346,989 419,989 480,963 531,910 582,859 608,796 608,723 608,648 583,586 532,535 482,483 420,457 346,457 Z"/>
  </g>
  <g id="bullet-char-template(8211)" transform="scale(0.00048828125,-0.00048828125)">
   <path d="M -4,459 L 1135,459 1135,606 -4,606 -4,459 Z"/>
  </g>
 </defs>
 <defs class="TextEmbeddedBitmaps"/>
 <g>
  <g id="id2" class="Master_Slide">
   <g id="bg-id2" class="Background"/>
   <g id="bo-id2" class="BackgroundObjects"/>
  </g>
 </g>
 <g class="SlideGroup">
  <g>
   <g id="id1" class="Slide" clip-path="url(#presentation_clip_path)">
    <g class="Page">
     <g class="com.sun.star.drawing.ClosedBezierShape">
      <g id="id3">
       <path fill="rgb(185,35,0)" fill-opacity="0.898" stroke="rgb(185,35,0)" stroke-opacity="0.000" d="M 1251,10896 C 1217,10889 1015,10801 801,10702 588,10602 380,10507 340,10489 L 267,10457 462,9702 656,8946 669,8567 682,8188 869,7674 1057,7160 1057,6688 1057,6217 1012,6225 C 946,6238 945,6216 1005,6114 1035,6063 1055,6013 1051,6003 1047,5992 947,5858 830,5704 712,5551 616,5416 617,5405 617,5393 671,5193 737,4960 844,4584 861,4536 895,4531 930,4526 934,4514 934,4421 L 934,4316 856,4316 777,4316 918,3897 1058,3478 1030,3404 C 992,3304 890,3227 734,3179 L 607,3140 602,3047 C 597,2955 597,2953 641,2962 689,2971 687,2983 660,2812 652,2762 642,2746 615,2746 577,2746 576,2748 634,2543 L 663,2437 820,2432 978,2427 1110,2234 C 1209,2089 1267,2024 1343,1970 1411,1922 1448,1883 1455,1851 1461,1824 1468,1795 1471,1785 1474,1775 1628,1690 1813,1595 L 2149,1423 2415,1423 2680,1423 2680,1353 C 2680,1288 2676,1282 2634,1282 2590,1282 2588,1279 2598,1207 2603,1166 2622,924 2639,669 2665,276 2673,206 2697,206 2712,206 3103,287 3566,386 L 4408,566 4408,843 4408,1120 4598,1131 C 4702,1137 4849,1147 4924,1152 5084,1164 5072,1134 5042,1458 5023,1649 5019,1665 4968,1719 4917,1771 4904,1776 4803,1776 L 4693,1776 4673,1877 C 4657,1955 4618,2031 4509,2198 4296,2525 4177,2856 4086,3370 4078,3417 4084,3423 4177,3465 4283,3513 4462,3652 4461,3687 4460,3698 4358,3850 4233,4024 4033,4305 4009,4345 4025,4381 4037,4408 4037,4428 4026,4443 4016,4456 3855,4659 3668,4895 3343,5306 3324,5332 3254,5512 3180,5698 3179,5705 3167,5987 L 3155,6274 2513,8183 1870,10093 1737,10216 1604,10340 1510,10622 C 1418,10898 1415,10904 1364,10907 1336,10908 1285,10904 1251,10896 Z"/>
      </g>
     </g>
     <g class="com.sun.star.drawing.TextShape">
      <g id="id4"/>
     </g>
     <g class="com.sun.star.drawing.TextShape">
      <g id="id5">
       <text class="TextShape"><tspan class="TextParagraph" font-family="Arial, sans-serif" font-size="423px" font-weight="400"><tspan class="TextPosition" x="1906" y="3305"><tspan fill="rgb(0,0,0)" stroke="none">Doncaster</tspan></tspan></tspan><tspan class="TextParagraph" font-family="Arial, sans-serif" font-size="423px" font-weight="400"><tspan class="TextPosition" x="1906" y="3783"><tspan fill="rgb(0,0,0)" stroke="none">Sheffield</tspan></tspan></tspan><tspan class="TextParagraph" font-family="Arial, sans-serif" font-size="423px" font-weight="400"><tspan class="TextPosition" x="1906" y="4261"><tspan fill="rgb(0,0,0)" stroke="none">Airport</tspan></tspan></tspan></text>
      </g>
     </g>
    </g>
   </g>
  </g>
 </g>
</svg>
