<?xml version="1.0" encoding="UTF-8" standalone="no"?>
<svg
   xmlns:ooo="http://xml.openoffice.org/svg/export"
   xmlns:dc="http://purl.org/dc/elements/1.1/"
   xmlns:cc="http://creativecommons.org/ns#"
   xmlns:rdf="http://www.w3.org/1999/02/22-rdf-syntax-ns#"
   xmlns:svg="http://www.w3.org/2000/svg"
   xmlns="http://www.w3.org/2000/svg"
   xmlns:sodipodi="http://sodipodi.sourceforge.net/DTD/sodipodi-0.dtd"
   xmlns:inkscape="http://www.inkscape.org/namespaces/inkscape"
   version="1.2"
   width="314.62241"
   height="60.762806"
   viewBox="0 0 8879.3436 1714.8614"
   preserveAspectRatio="xMidYMid"
   clip-path="url(#presentation_clip_path)"
   xml:space="preserve"
   id="svg2985"
   inkscape:version="0.48.4 r9939"
   sodipodi:docname="Farrs Road Red and Red.svg"
   style="fill-rule:evenodd;stroke-width:28.22200012;stroke-linejoin:round"><metadata
     id="metadata3188"><rdf:RDF><cc:Work
         rdf:about=""><dc:format>image/svg+xml</dc:format><dc:type
           rdf:resource="http://purl.org/dc/dcmitype/StillImage" /></cc:Work></rdf:RDF></metadata><sodipodi:namedview
     pagecolor="#ffffff"
     bordercolor="#666666"
     borderopacity="1"
     objecttolerance="10"
     gridtolerance="10"
     guidetolerance="10"
     inkscape:pageopacity="0"
     inkscape:pageshadow="2"
     inkscape:window-width="1680"
     inkscape:window-height="1026"
     id="namedview3186"
     showgrid="false"
     fit-margin-top="0"
     fit-margin-left="0"
     fit-margin-right="0"
     fit-margin-bottom="0"
     inkscape:zoom="1"
     inkscape:cx="117.9074"
     inkscape:cy="52.41844"
     inkscape:window-x="0"
     inkscape:window-y="24"
     inkscape:window-maximized="1"
     inkscape:current-layer="id1" /><defs
     class="ClipPathGroup"
     id="defs2987"><clipPath
       id="presentation_clip_path"
       clipPathUnits="userSpaceOnUse"><rect
         x="0"
         y="0"
         width="29700"
         height="21000"
         id="rect2990" /></clipPath></defs><defs
     class="TextShapeIndex"
     id="defs2992"><g
       ooo:slide="id1"
       ooo:id-list="id3 id4 id5 id6 id7 id8 id9 id10 id11 id12 id13 id14 id15 id16 id17"
       id="g2994" /></defs><defs
     class="EmbeddedBulletChars"
     id="defs2996"><g
       id="bullet-char-template(57356)"
       transform="scale(4.8828125e-4,-4.8828125e-4)"><path
         d="M 580,1141 1163,571 580,0 -4,571 580,1141 z"
         id="path2999"
         inkscape:connector-curvature="0" /></g><g
       id="bullet-char-template(57354)"
       transform="scale(4.8828125e-4,-4.8828125e-4)"><path
         d="m 8,1128 1129,0 L 1137,0 8,0 8,1128 z"
         id="path3002"
         inkscape:connector-curvature="0" /></g><g
       id="bullet-char-template(10146)"
       transform="scale(4.8828125e-4,-4.8828125e-4)"><path
         d="M 174,0 602,739 174,1481 1456,739 174,0 z m 1184,739 -1049,607 350,-607 699,0 z"
         id="path3005"
         inkscape:connector-curvature="0" /></g><g
       id="bullet-char-template(10132)"
       transform="scale(4.8828125e-4,-4.8828125e-4)"><path
         d="M 2015,739 1276,0 717,0 l 543,543 -1086,0 0,393 1086,0 -543,545 557,0 741,-742 z"
         id="path3008"
         inkscape:connector-curvature="0" /></g><g
       id="bullet-char-template(10007)"
       transform="scale(4.8828125e-4,-4.8828125e-4)"><path
         d="m 0,-2 c -7,16 -16,29 -25,39 l 381,530 c -94,256 -141,385 -141,387 0,25 13,38 40,38 9,0 21,-2 34,-5 21,4 42,12 65,25 l 27,-13 111,-251 280,301 64,-25 24,25 c 21,-10 41,-24 62,-43 C 886,937 835,863 770,784 769,783 710,716 594,584 L 774,223 c 0,-27 -21,-55 -63,-84 l 16,-20 C 717,90 699,76 672,76 641,76 570,178 457,381 L 164,-76 c -22,-34 -53,-51 -92,-51 -42,0 -63,17 -64,51 -7,9 -10,24 -10,44 0,9 1,19 2,30 z"
         id="path3011"
         inkscape:connector-curvature="0" /></g><g
       id="bullet-char-template(10004)"
       transform="scale(4.8828125e-4,-4.8828125e-4)"><path
         d="M 285,-33 C 182,-33 111,30 74,156 52,228 41,333 41,471 c 0,78 14,145 41,201 34,71 87,106 158,106 53,0 88,-31 106,-94 l 23,-176 c 8,-64 28,-97 59,-98 l 735,706 c 11,11 33,17 66,17 42,0 63,-15 63,-46 l 0,-122 c 0,-36 -10,-64 -30,-84 L 442,47 C 390,-6 338,-33 285,-33 z"
         id="path3014"
         inkscape:connector-curvature="0" /></g><g
       id="bullet-char-template(9679)"
       transform="scale(4.8828125e-4,-4.8828125e-4)"><path
         d="M 813,0 C 632,0 489,54 383,161 276,268 223,411 223,592 c 0,181 53,324 160,431 106,107 249,161 430,161 179,0 323,-54 432,-161 108,-107 162,-251 162,-431 0,-180 -54,-324 -162,-431 C 1136,54 992,0 813,0 z"
         id="path3017"
         inkscape:connector-curvature="0" /></g><g
       id="bullet-char-template(8226)"
       transform="scale(4.8828125e-4,-4.8828125e-4)"><path
         d="m 346,457 c -73,0 -137,26 -191,78 -54,51 -81,114 -81,188 0,73 27,136 81,188 54,52 118,78 191,78 73,0 134,-26 185,-79 51,-51 77,-114 77,-187 0,-75 -25,-137 -76,-188 -50,-52 -112,-78 -186,-78 z"
         id="path3020"
         inkscape:connector-curvature="0" /></g><g
       id="bullet-char-template(8211)"
       transform="scale(4.8828125e-4,-4.8828125e-4)"><path
         d="m -4,459 1139,0 0,147 -1139,0 0,-147 z"
         id="path3023"
         inkscape:connector-curvature="0" /></g></defs><defs
     class="TextEmbeddedBitmaps"
     id="defs3025" /><g
     id="g3027"
     transform="translate(-12227.188,-11519.451)"><g
       id="id2"
       class="Master_Slide"><g
         id="bg-id2"
         class="Background" /><g
         id="bo-id2"
         class="BackgroundObjects" /></g></g><g
     class="SlideGroup"
     id="g3032"
     transform="translate(-12227.188,-11519.451)"><g
       id="g3034"><g
         id="id1"
         class="Slide"
         clip-path="url(#presentation_clip_path)"><g
           id="g3282"><g
             class="com.sun.star.drawing.LineShape"
             id="g3039"><g
               id="id3"><path
                 d="m 12257,11598 33,291"
                 id="path3042"
                 inkscape:connector-curvature="0"
                 style="fill:none;stroke:#800000;stroke-width:60" /></g></g><g
             transform="translate(-8.7657867,-4.3828933)"
             class="com.sun.star.drawing.LineShape"
             id="g3044"><g
               id="id4"><path
                 d="m 12403,11584 19,199"
                 id="path3047"
                 inkscape:connector-curvature="0"
                 style="fill:none;stroke:#800000;stroke-width:60" /></g></g><g
             class="com.sun.star.drawing.LineShape"
             id="g3049"><g
               id="id5"><path
                 d="m 12264,11908 2066,2"
                 id="path3052"
                 inkscape:connector-curvature="0"
                 style="fill:none;stroke:#800000;stroke-width:60" /></g></g><g
             class="com.sun.star.drawing.CustomShape"
             id="g3054"><g
               id="id6"><path
                 d="m 14419,11770 c 56,0 100,43 100,99 0,56 -44,100 -100,100 -56,0 -99,-44 -99,-100 0,-56 43,-99 99,-99 z"
                 id="path3057"
                 inkscape:connector-curvature="0"
                 style="fill:none;stroke:#800000;stroke-width:60" /></g></g><g
             class="com.sun.star.drawing.LineShape"
             id="g3059"><g
               id="id7"><path
                 d="m 12383,11801 1950,2"
                 id="path3062"
                 inkscape:connector-curvature="0"
                 style="fill:none;stroke:#800000;stroke-width:60" /></g></g><g
             transform="matrix(1.3573995,0,0,1.100287,-5230.6058,-1185.8425)"
             class="com.sun.star.drawing.LineShape"
             id="g3064"><g
               id="id8"><path
                 d="m 14530,11943 100,200"
                 id="path3067"
                 inkscape:connector-curvature="0"
                 style="fill:none;stroke:#800000;stroke-width:60" /></g></g><g
             class="com.sun.star.drawing.LineShape"
             id="g3069"><g
               id="id9"><path
                 d="m 14630,12143 -200,800"
                 id="path3072"
                 inkscape:connector-curvature="0"
                 style="fill:none;stroke:#800000;stroke-width:60" /></g></g><g
             transform="matrix(1.0389014,0,0,1,-586.47781,0)"
             class="com.sun.star.drawing.LineShape"
             id="g3074"><g
               id="id10"><path
                 d="m 14430,12943 616,30"
                 id="path3077"
                 inkscape:connector-curvature="0"
                 style="fill:none;stroke:#800000;stroke-width:60" /></g></g><g
             transform="matrix(0.99399604,0,0,1.0305074,111.9379,-351.41449)"
             class="com.sun.star.drawing.LineShape"
             id="g3079"><g
               id="id11"><path
                 d="m 18614,11549 -2130,371"
                 id="path3082"
                 inkscape:connector-curvature="0"
                 style="fill:none;stroke:#800000;stroke-width:60" /></g></g><g
             class="com.sun.star.drawing.LineShape"
             id="g3084"><g
               id="id12"><path
                 d="m 16504,11935 -2031,-152"
                 id="path3087"
                 inkscape:connector-curvature="0"
                 style="fill:none;stroke:#800000;stroke-width:60" /></g></g><g
             class="com.sun.star.drawing.LineShape"
             id="g3089"><g
               id="id13"><path
                 d="m 18613,11545 26,44"
                 id="path3092"
                 inkscape:connector-curvature="0"
                 style="fill:none;stroke:#800000;stroke-width:40" /><path
                 d="m 18664,11633 26,44"
                 id="path3094"
                 inkscape:connector-curvature="0"
                 style="fill:none;stroke:#800000;stroke-width:40" /><path
                 d="m 18715,11721 26,45"
                 id="path3096"
                 inkscape:connector-curvature="0"
                 style="fill:none;stroke:#800000;stroke-width:40" /><path
                 d="m 18767,11810 25,44"
                 id="path3098"
                 inkscape:connector-curvature="0"
                 style="fill:none;stroke:#800000;stroke-width:40" /><path
                 d="m 18818,11898 25,44"
                 id="path3100"
                 inkscape:connector-curvature="0"
                 style="fill:none;stroke:#800000;stroke-width:40" /><path
                 d="m 18869,11986 26,44"
                 id="path3102"
                 inkscape:connector-curvature="0"
                 style="fill:none;stroke:#800000;stroke-width:40" /><path
                 d="m 18920,12074 4,7"
                 id="path3104"
                 inkscape:connector-curvature="0"
                 style="fill:none;stroke:#800000;stroke-width:40" /></g></g><g
             class="com.sun.star.drawing.LineShape"
             id="g3106"><g
               id="id14"><path
                 d="m 19308,12603 -31,-41"
                 id="path3109"
                 inkscape:connector-curvature="0"
                 style="fill:none;stroke:#800000;stroke-width:40" /><path
                 d="m 19247,12521 -31,-40"
                 id="path3111"
                 inkscape:connector-curvature="0"
                 style="fill:none;stroke:#800000;stroke-width:40" /><path
                 d="m 19186,12440 -31,-41"
                 id="path3113"
                 inkscape:connector-curvature="0"
                 style="fill:none;stroke:#800000;stroke-width:40" /><path
                 d="m 19124,12358 -30,-41"
                 id="path3115"
                 inkscape:connector-curvature="0"
                 style="fill:none;stroke:#800000;stroke-width:40" /><path
                 d="m 19063,12277 -31,-41"
                 id="path3117"
                 inkscape:connector-curvature="0"
                 style="fill:none;stroke:#800000;stroke-width:40" /><path
                 d="m 19002,12195 -31,-41"
                 id="path3119"
                 inkscape:connector-curvature="0"
                 style="fill:none;stroke:#800000;stroke-width:40" /><path
                 d="m 18941,12114 -30,-40"
                 id="path3121"
                 inkscape:connector-curvature="0"
                 style="fill:none;stroke:#800000;stroke-width:40" /></g></g><g
             class="com.sun.star.drawing.LineShape"
             id="g3123"><g
               id="id15"><path
                 d="m 19884,13185 43,-28"
                 id="path3126"
                 inkscape:connector-curvature="0"
                 style="fill:none;stroke:#800000;stroke-width:40" /><path
                 d="m 19970,13129 42,-27"
                 id="path3128"
                 inkscape:connector-curvature="0"
                 style="fill:none;stroke:#800000;stroke-width:40" /><path
                 d="m 20055,13074 43,-28"
                 id="path3130"
                 inkscape:connector-curvature="0"
                 style="fill:none;stroke:#800000;stroke-width:40" /><path
                 d="m 20141,13018 43,-27"
                 id="path3132"
                 inkscape:connector-curvature="0"
                 style="fill:none;stroke:#800000;stroke-width:40" /><path
                 d="m 20226,12963 43,-28"
                 id="path3134"
                 inkscape:connector-curvature="0"
                 style="fill:none;stroke:#800000;stroke-width:40" /><path
                 d="m 20312,12907 43,-27"
                 id="path3136"
                 inkscape:connector-curvature="0"
                 style="fill:none;stroke:#800000;stroke-width:40" /><path
                 d="m 20397,12852 43,-28"
                 id="path3138"
                 inkscape:connector-curvature="0"
                 style="fill:none;stroke:#800000;stroke-width:40" /><path
                 d="m 20483,12796 43,-27"
                 id="path3140"
                 inkscape:connector-curvature="0"
                 style="fill:none;stroke:#800000;stroke-width:40" /><path
                 d="m 20569,12741 42,-28"
                 id="path3142"
                 inkscape:connector-curvature="0"
                 style="fill:none;stroke:#800000;stroke-width:40" /><path
                 d="m 20654,12685 43,-27"
                 id="path3144"
                 inkscape:connector-curvature="0"
                 style="fill:none;stroke:#800000;stroke-width:40" /><path
                 d="m 20740,12630 43,-28"
                 id="path3146"
                 inkscape:connector-curvature="0"
                 style="fill:none;stroke:#800000;stroke-width:40" /><path
                 d="m 20825,12574 38,-24"
                 id="path3148"
                 inkscape:connector-curvature="0"
                 style="fill:none;stroke:#800000;stroke-width:40" /></g></g><g
             class="com.sun.star.drawing.LineShape"
             id="g3150"><g
               id="id16"><path
                 d="m 21088,11995 -19,47"
                 id="path3153"
                 inkscape:connector-curvature="0"
                 style="fill:none;stroke:#800000;stroke-width:40" /><path
                 d="m 21050,12090 -19,47"
                 id="path3155"
                 inkscape:connector-curvature="0"
                 style="fill:none;stroke:#800000;stroke-width:40" /><path
                 d="m 21012,12184 -19,48"
                 id="path3157"
                 inkscape:connector-curvature="0"
                 style="fill:none;stroke:#800000;stroke-width:40" /><path
                 d="m 20974,12279 -19,47"
                 id="path3159"
                 inkscape:connector-curvature="0"
                 style="fill:none;stroke:#800000;stroke-width:40" /><path
                 d="m 20936,12374 -19,47"
                 id="path3161"
                 inkscape:connector-curvature="0"
                 style="fill:none;stroke:#800000;stroke-width:40" /><path
                 d="m 20898,12468 -19,48"
                 id="path3163"
                 inkscape:connector-curvature="0"
                 style="fill:none;stroke:#800000;stroke-width:40" /></g></g><g
             class="com.sun.star.drawing.OpenBezierShape"
             id="g3165"><g
               id="id17"><path
                 d="m 19321,12619 c 9,14 17,29 26,44"
                 id="path3168"
                 inkscape:connector-curvature="0"
                 style="fill:none;stroke:#800000;stroke-width:40" /><path
                 d="m 19373,12706 c 10,15 20,29 30,42"
                 id="path3170"
                 inkscape:connector-curvature="0"
                 style="fill:none;stroke:#800000;stroke-width:40" /><path
                 d="m 19439,12784 c 10,8 21,16 32,22 4,2 7,4 11,6"
                 id="path3172"
                 inkscape:connector-curvature="0"
                 style="fill:none;stroke:#800000;stroke-width:40" /><path
                 d="m 19526,12838 c 14,8 29,17 43,27"
                 id="path3174"
                 inkscape:connector-curvature="0"
                 style="fill:none;stroke:#800000;stroke-width:40" /><path
                 d="m 19612,12893 c 14,9 27,19 41,30"
                 id="path3176"
                 inkscape:connector-curvature="0"
                 style="fill:none;stroke:#800000;stroke-width:40" /><path
                 d="m 19691,12956 c 12,13 22,26 32,40"
                 id="path3178"
                 inkscape:connector-curvature="0"
                 style="fill:none;stroke:#800000;stroke-width:40" /><path
                 d="m 19750,13039 c 8,15 17,30 25,45"
                 id="path3180"
                 inkscape:connector-curvature="0"
                 style="fill:none;stroke:#800000;stroke-width:40" /><path
                 d="m 19800,13128 c 2,2 3,4 4,6 l 13,42"
                 id="path3182"
                 inkscape:connector-curvature="0"
                 style="fill:none;stroke:#800000;stroke-width:40" /><path
                 d="m 19830,13225 1,3"
                 id="path3184"
                 inkscape:connector-curvature="0"
                 style="fill:none;stroke:#800000;stroke-width:40" /></g></g></g></g></g></g></svg>