<?xml version="1.0"?>
<svg xmlns:rdf="http://www.w3.org/1999/02/22-rdf-syntax-ns#" xmlns="http://www.w3.org/2000/svg" xmlns:cc="http://creativecommons.org/ns#" xmlns:dc="http://purl.org/dc/elements/1.1/" id="svg3626" viewBox="0 0 612 612" version="1.0">
 <g id="g3636" fill="#be3617">
  <path id="path3638" stroke="#000" stroke-width="3.408" d="m82.432 17.924c-41.335 0-64.571 21.371-64.571 65.036v450.12c0 40.84 20.891 62.23 62.192 62.23h452.03c41.3 0 62.22-20.32 62.22-62.23v-450.12c0-42.6-20.92-65.036-63.52-65.036 0 0-448.49-0.142-448.35 0z"/>
  <g id="g3640">
   <g id="g3642" fill="#fff">
    <path id="path3644" d="m337.19 529.29c22.49-9.74 32.98-8.42 51.48 1.26 18.51 9.68 37.01 9.68 58.83-1.45s39.59-4.79 49.44 1.19c8.25 5 16.5 7 28.85 7v-44.53c-18.6 0.03-26.57-6.3-26.57-6.3-19.22-11.86-36.83-9.51-61.03 3.08-13.8 7.17-35.69 5.28-51.18-2.79-21.35-11.14-33.44-8.41-55.82 1.54-17.33 7.7-32.98 7.7-50.25 0-22.36-9.98-33.89-12.68-55.24-1.54-15.5 8.07-37.71 9.96-51.51 2.79-24.2-12.59-41.49-14.94-60.7-3.08 0 0-8.3 6.3-26.573 6.3v44.53c11.525 0 20.523-2.25 28.273-7 9.84-6.03 28.19-12.32 50.01-1.19 21.83 11.13 40.33 11.13 58.83 1.45 18.51-9.68 28.76-11.42 51.25-1.69 21.82 11.13 43.41 10.11 61.91 0.43z"/>
    <path id="path3646" d="m336.69 463.29c17.75-9 33.71-8.49 52.22 1.19 18.5 9.68 37 9.68 58.83-1.45 21.82-11.13 40.14-5.51 50.29-0.04 8.91 4.8 15.16 7.3 27.99 8.23v-43.43c-16.33-0.4-26.56-6.3-26.56-6.3-37.77-20.6-54.2 4.49-74.5 4.49v-100.42l31.32-72.12c4.74-11.13 0-21.3-11.39-26.14l-18.98-7.74v-62.44h-36.55v-32.9h-51.22v-44.065h-63.58v44.065h-51.21v32.9h-36.56v62.44l-18.98 7.74c-11.39 4.84-16.13 15.01-11.39 26.14l31.32 72.12v100.42h0.01c-20.3 0-37.56-24.69-74.49-4.09h-0.01s-10.56 5.9-26.571 6.29v43.04c12.513-0.93 18.511-2.93 27.991-8.23 10.07-5.63 28.47-11.09 50.29 0.04 21.83 11.13 40.33 11.13 58.84 1.45 18.5-9.68 34.63-10.16 51.95-1.45 21.83 11.13 38.94 11.26 60.94 0.26z"/>
   </g>
   <path id="path3648" d="m306.35 150.34h-55.98v32.42h-36.54v25.18l92.52-38.15 92.52 38.15v-25.18h-36.53v-32.42h-55.99z"/>
  </g>
 </g>
 <metadata>
  <rdf:RDF>
   <cc:Work>
    <dc:format>image/svg+xml</dc:format>
    <dc:type rdf:resource="http://purl.org/dc/dcmitype/StillImage"/>
    <cc:license rdf:resource="http://creativecommons.org/licenses/publicdomain/"/>
    <dc:publisher>
     <cc:Agent rdf:about="http://openclipart.org/">
      <dc:title>Openclipart</dc:title>
     </cc:Agent>
    </dc:publisher>
   </cc:Work>
   <cc:License rdf:about="http://creativecommons.org/licenses/publicdomain/">
    <cc:permits rdf:resource="http://creativecommons.org/ns#Reproduction"/>
    <cc:permits rdf:resource="http://creativecommons.org/ns#Distribution"/>
    <cc:permits rdf:resource="http://creativecommons.org/ns#DerivativeWorks"/>
   </cc:License>
  </rdf:RDF>
 </metadata>
</svg>
